<svg xmlns="http://www.w3.org/2000/svg" width="168" height="32" viewBox="0 0 168 32" fill="none">
<g clip-path="url(#clip0_6204_78234)">
<path d="M0 10.6627H4.59968V23.6106H6.703V10.6627H11.3027V8.60547H0V10.6627Z" fill="#F5F5F7"/>
<path d="M28.1769 14.7642H20.9393V8.60547H18.8359V23.6106H20.9393V16.8213H28.1769V23.6106H30.2803V8.60547H28.1769V14.7642Z" fill="#F5F5F7"/>
<path d="M76.2637 15.8427C75.7414 15.5393 75.1643 15.3022 74.5499 15.133C73.9444 14.9676 73.3761 14.7782 72.8644 14.5705C72.3581 14.3664 71.9296 14.0962 71.5897 13.7708C71.2586 13.4546 71.0922 12.9894 71.0922 12.3883C71.0922 12.175 71.1347 11.9379 71.2179 11.6823C71.3011 11.4305 71.448 11.1915 71.6534 10.9709C71.8588 10.7503 72.1385 10.5664 72.482 10.4249C72.8272 10.2833 73.2681 10.2116 73.7939 10.2116C74.3197 10.2116 74.8385 10.3274 75.2687 10.5591C75.6972 10.7889 76.0336 11.0959 76.2655 11.4709L76.3186 11.5573L78.0236 9.94686L77.974 9.88436C77.4269 9.18944 76.7825 8.72248 76.0566 8.49452C75.3378 8.27023 74.5765 8.15625 73.7921 8.15625C72.9246 8.15625 72.1704 8.29597 71.5507 8.57173C70.9311 8.84749 70.4176 9.19495 70.021 9.60676C69.6245 10.0186 69.3306 10.48 69.1447 10.9782C68.9605 11.4746 68.8667 11.9507 68.8667 12.392C68.8667 13.3682 69.0473 14.155 69.4049 14.7323C69.759 15.3058 70.2069 15.7691 70.7328 16.1092C71.2551 16.4475 71.8322 16.7141 72.4484 16.9053C73.0539 17.0909 73.6222 17.2876 74.1374 17.4899C74.6437 17.6884 75.074 17.9366 75.4157 18.2289C75.7432 18.5102 75.9096 18.9294 75.9096 19.4717C75.9096 19.8596 75.8246 20.2034 75.6582 20.4957C75.49 20.7917 75.2705 21.0435 75.0049 21.2458C74.7376 21.448 74.4384 21.6024 74.1126 21.7035C73.7851 21.8046 73.4611 21.8561 73.1477 21.8561C72.5829 21.8561 72.0288 21.7293 71.4976 21.4756C70.97 21.2255 70.5292 20.8303 70.191 20.3008L70.1397 20.2199L68.417 21.7605L68.4613 21.8249C68.9517 22.5326 69.6227 23.0658 70.4548 23.4059C71.2816 23.7442 72.1669 23.9151 73.0875 23.9151C73.7798 23.9151 74.4401 23.8085 75.051 23.5971C75.6635 23.3857 76.2018 23.0768 76.6515 22.6797C77.1029 22.2826 77.4659 21.7862 77.7314 21.2053C77.997 20.6244 78.1333 19.9625 78.1333 19.24C78.1333 18.3319 77.951 17.6075 77.5934 17.0854C77.2375 16.567 76.7913 16.1497 76.2655 15.8445L76.2637 15.8427Z" fill="#F5F5F7"/>
<path d="M85.5547 10.6627H90.1544V23.6106H92.2577V10.6627H96.8574V8.60547H85.5547V10.6627Z" fill="#F5F5F7"/>
<path d="M113.511 17.7828C113.511 18.2351 113.45 18.7112 113.332 19.1966C113.213 19.6801 113.015 20.1323 112.739 20.5404C112.464 20.9467 112.101 21.2832 111.657 21.5405C111.214 21.7979 110.658 21.9284 110.003 21.9284C109.348 21.9284 108.79 21.7979 108.35 21.5405C107.905 21.2832 107.542 20.9467 107.268 20.5404C106.992 20.1323 106.793 19.6801 106.675 19.1966C106.556 18.7094 106.496 18.2351 106.496 17.7828V8.60547H104.393V18.099C104.393 18.9723 104.538 19.7775 104.823 20.489C105.108 21.2023 105.508 21.8273 106.011 22.3494C106.514 22.8716 107.114 23.2797 107.794 23.5628C108.474 23.8441 109.217 23.9875 110.003 23.9875C110.789 23.9875 111.533 23.8441 112.213 23.5628C112.893 23.2815 113.493 22.8734 113.996 22.3494C114.498 21.8273 114.899 21.2004 115.184 20.489C115.469 19.7757 115.614 18.9723 115.614 18.099V8.60547H113.511V17.7847V17.7828Z" fill="#F5F5F7"/>
<path d="M135.188 12.9331C134.972 12.3852 134.673 11.8429 134.301 11.3226C133.928 10.8005 133.451 10.3317 132.89 9.93096C132.327 9.53019 131.654 9.20479 130.89 8.9658C130.125 8.7268 129.224 8.60547 128.213 8.60547H123.146V23.6106H127.889C129.17 23.6106 130.319 23.3973 131.3 22.9763C132.281 22.5553 133.115 21.9891 133.779 21.2924C134.443 20.5956 134.951 19.7885 135.291 18.8951C135.629 18.0016 135.801 17.064 135.801 16.108C135.801 15.6466 135.753 15.1337 135.657 14.584C135.562 14.0361 135.404 13.4809 135.188 12.9331ZM125.247 10.6645H128.069C129.208 10.6645 130.144 10.8612 130.854 11.2509C131.566 11.6407 132.131 12.1224 132.531 12.6831C132.933 13.2438 133.209 13.8431 133.354 14.4645C133.499 15.0914 133.574 15.6448 133.574 16.1099C133.574 17.0144 133.414 17.8159 133.097 18.4925C132.782 19.169 132.348 19.7407 131.808 20.1911C131.268 20.6434 130.629 20.9872 129.91 21.2133C129.188 21.4394 128.413 21.5553 127.604 21.5553H125.245V10.6627L125.247 10.6645Z" fill="#F5F5F7"/>
<path d="M145.423 8.60547H143.319V23.6106H145.423V8.60547Z" fill="#F5F5F7"/>
<path d="M167.439 12.9936C167.067 12.0376 166.545 11.1974 165.888 10.4933C165.231 9.78921 164.431 9.23034 163.511 8.82956C162.59 8.42879 161.568 8.22656 160.472 8.22656C159.376 8.22656 158.355 8.42879 157.434 8.82956C156.514 9.23034 155.713 9.78921 155.057 10.4933C154.4 11.1956 153.877 12.0376 153.506 12.9936C153.134 13.9477 152.944 14.9956 152.944 16.106C152.944 17.2164 153.134 18.2625 153.506 19.2184C153.877 20.1744 154.4 21.0146 155.057 21.7187C155.713 22.4228 156.514 22.9817 157.434 23.3824C158.355 23.7832 159.376 23.9854 160.472 23.9854C161.568 23.9854 162.59 23.7814 163.511 23.3824C164.431 22.9817 165.231 22.421 165.888 21.7187C166.545 21.0164 167.067 20.1744 167.439 19.2184C167.811 18.2625 168 17.2164 168 16.106C168 14.9956 167.811 13.9495 167.439 12.9936ZM160.472 21.9264C159.667 21.9264 158.932 21.7702 158.288 21.4631C157.641 21.1543 157.08 20.7351 156.62 20.2149C156.158 19.6946 155.797 19.0732 155.547 18.3691C155.296 17.6631 155.168 16.9002 155.168 16.1042C155.168 15.3081 155.296 14.547 155.547 13.8392C155.797 13.1351 156.158 12.5137 156.62 11.9935C157.08 11.4732 157.643 11.054 158.288 10.7452C158.932 10.4382 159.667 10.2819 160.472 10.2819C161.278 10.2819 162.013 10.4382 162.657 10.7452C163.303 11.0522 163.865 11.4732 164.325 11.9935C164.787 12.5137 165.146 13.1351 165.398 13.8392C165.649 14.547 165.777 15.3081 165.777 16.1042C165.777 16.9002 165.649 17.6613 165.398 18.3691C165.146 19.075 164.787 19.6946 164.325 20.2149C163.865 20.7351 163.302 21.1543 162.657 21.4631C162.013 21.7702 161.278 21.9264 160.472 21.9264Z" fill="#F5F5F7"/>
<path d="M39.9158 16.9673H46.695V14.9102H40.447H39.9158H37.8125V23.6095H47.5625V21.5505H39.9158V16.9673Z" fill="#F5F5F7"/>
<path d="M37.8125 8.60547V10.6627H39.9158H47.5625V8.60547H37.8125Z" fill="#F5F5F7"/>
<path d="M70.1574 1.9604L68.4443 0.652344L47.6333 30.038L49.3463 31.3461L70.1574 1.9604Z" fill="#F5F5F7"/>
</g>
<defs>
<clipPath id="clip0_6204_78234">
<rect width="168" height="30.6923" fill="white" transform="translate(0 0.65625)"/>
</clipPath>
</defs>
</svg>